#!OML:ASF H:\Terrain\Patient Classification 1\Animal2\Wednesday\Animal2.ASF
:FULLY-SPECIFIED
:DEGREES
326
root 10.0947 15.1538 -19.5898 -7.65064 -0.425867 0.63906
lowerback 11.0375 -2.7044 1.42827
upperback 7.84286 -3.47986 1.58262
thorax 2.02577 -1.73464 1.15387
lowerneck 6.20942 6.93068 17.0977
upperneck 5.49175 11.1467 -20.7758
head 2.70547 5.79973 -9.14736
rclavicle -8.74653e-015 6.36111e-015
rhumerus -22.8885 22.3275 -97.8133
rradius 135.954
rwrist 1.05953
rhand -38.7153 12.9832
rfingers 7.12502
rthumb -11.7292 -16.6685
lclavicle -8.74653e-015 6.36111e-015
lhumerus -29.5729 -4.62917 86.3219
lradius 141.502
lwrist 47.6489
lhand -31.896 40.3214
lfingers 7.12502
lthumb -5.14828 70.2388
rfemur -22.3229 -5.21419 14.5425
rtibia 73.3319
rfoot -40.3425 -10.9642
rtoes -17.6983
lfemur -21.1579 2.18311 -5.84943
ltibia 67.5744
lfoot -35.5537 -6.28805
ltoes -28.7604
327
root 10.1115 15.1415 -19.619 -7.63555 -0.368062 1.00495
lowerback 11.248 -2.60036 0.944778
upperback 8.03367 -3.38095 1.54768
thorax 2.13748 -1.70361 1.38327
lowerneck 6.05209 6.88082 17.0127
upperneck 5.98465 11.0884 -20.3985
head 2.8364 5.75487 -8.99869
rclavicle -2.5842e-015 2.46493e-014
rhumerus -22.9928 21.3249 -98.2303
rradius 136.397
rwrist 0.904303
rhand -37.6365 11.7551
rfingers 7.12502
rthumb -10.6886 -17.953
lclavicle -2.5842e-015 2.46493e-014
lhumerus -29.3084 -4.96861 86.5606
lradius 141.16
lwrist 47.452
lhand -32.6232 40.6163
lfingers 7.12502
lthumb -5.85047 70.5155
rfemur -22.585 -5.17094 14.0809
rtibia 73.5679
rfoot -40.4331 -10.9377
rtoes -17.8231
lfemur -21.1025 1.9042 -6.48893
ltibia 67.3743
lfoot -35.9798 -5.52407
ltoes -28.992
328
root 10.1245 15.1296 -19.6485 -7.51073 -0.447661 0.874058
lowerback 11.2156 -2.54573 0.975881
upperback 8.29437 -3.31326 1.60914
thorax 2.43217 -1.67062 1.41495
lowerneck 5.63366 6.86633 16.9703
upperneck 6.87728 11.1014 -20.1062
head 3.14891 5.72715 -8.8712
rclavicle -1.98785e-014 2.14687e-014
rhumerus -22.6648 21.0389 -97.9515
rradius 135.981
rwrist 0.612214
rhand -39.1804 13.5109
rfingers 7.12502
rthumb -12.1776 -16.1147
lclavicle -1.98785e-014 2.14687e-014
lhumerus -28.9106 -5.17364 86.6939
lradius 140.799
lwrist 47.0772
lhand -32.7451 40.941
lfingers 7.12502
lthumb -5.96812 70.8369
rfemur -22.927 -4.98469 14.2714
rtibia 73.6942
rfoot -40.6567 -10.7481
rtoes -15.4782
lfemur -21.2626 1.91208 -6.49424
ltibia 67.3169
lfoot -36.1715 -4.94658
ltoes -29.3552
329
root 10.1378 15.1303 -19.6817 -7.34107 -0.565929 0.591976
lowerback 11.181 -2.51408 1.21478
upperback 8.5466 -3.25943 1.66737
thorax 2.7085 -1.63502 1.32936
lowerneck 5.23066 6.85429 16.956
upperneck 7.80315 11.1222 -19.8237
head 3.47383 5.70558 -8.75454
rclavicle -5.96354e-016 1.11319e-014
rhumerus -22.3036 21.1728 -97.9902
rradius 135.65
rwrist 0.947158
rhand -39.8242 13.3136
rfingers 7.12502
rthumb -12.7984 -16.2741
lclavicle -5.96354e-016 1.11319e-014
lhumerus -28.5181 -5.41896 86.8273
lradius 140.479
lwrist 46.7753
lhand -32.9157 41.176
lfingers 7.12502
lthumb -6.13284 71.0672
rfemur -23.2863 -4.69571 14.6685
rtibia 73.6909
rfoot -40.6979 -10.9058
rtoes -14.5988
lfemur -21.5781 1.91635 -6.31196
ltibia 67.3548
lfoot -36.1595 -4.35602
ltoes -29.6552
330
root 10.1548 15.1377 -19.7205 -7.20008 -0.618899 0.445176
lowerback 11.3179 -2.47085 1.40798
upperback 8.75277 -3.18677 1.62315
thorax 2.8399 -1.58828 1.17091
lowerneck 4.9592 6.85902 16.8874
upperneck 8.52612 11.1244 -19.2433
head 3.697 5.68902 -8.53364
rclavicle 5.96354e-016 1.98785e-014
rhumerus -21.9771 21.0195 -98.0534
rradius 135.44
rwrist 0.395592
rhand -37.7994 11.4327
rfingers 7.12502
rthumb -10.8458 -18.2673
lclavicle 5.96354e-016 1.98785e-014
lhumerus -28.1785 -5.78882 86.9066
lradius 140.255
lwrist 46.5589
lhand -33.2975 41.5017
lfingers 7.12502
lthumb -6.50144 71.3819
rfemur -23.5717 -4.3977 14.8687
rtibia 73.5971
rfoot -40.5987 -11.0867
rtoes -15.2046
lfemur -21.9218 1.80017 -6.29015
ltibia 67.4213
lfoot -36.013 -3.81675
ltoes -30.0858
331
root 10.1715 15.1483 -19.7577 -7.01851 -0.705146 0.438831
lowerback 11.3728 -2.40827 1.47767
upperback 8.93214 -3.09979 1.53127
thorax 2.99128 -1.53813 1.02744
lowerneck 4.90661 6.83163 16.7434
upperneck 9.09358 11.0857 -18.6805
head 3.82733 5.66475 -8.31942
rclavicle -1.41137e-014 -7.95139e-016
rhumerus -21.9982 21.0546 -98.2367
rradius 135.188
rwrist 0.568026
rhand -39.6762 12.9905
rfingers 7.12502
rthumb -12.6557 -16.6061
lclavicle -1.41137e-014 -7.95139e-016
lhumerus -27.9116 -6.1101 86.9335
lradius 140.085
lwrist 46.4433
lhand -33.647 41.8376
lfingers 7.12502
lthumb -6.83877 71.7072
rfemur -23.8979 -4.12954 14.9184
rtibia 73.4463
rfoot -40.2494 -11.5771
rtoes -15.1425
lfemur -22.2732 1.76018 -6.39197
ltibia 67.4302
lfoot -35.7689 -3.38258
ltoes -30.5305
332
root 10.1853 15.1695 -19.7917 -6.78512 -0.899234 0.406569
lowerback 11.3402 -2.29329 1.55716
upperback 9.08412 -2.94549 1.47591
thorax 3.16265 -1.45445 0.907659
lowerneck 5.09004 6.69341 16.6854
upperneck 9.53395 10.9401 -18.4241
head 3.88115 5.59904 -8.24335
rclavicle -3.37934e-014 1.66979e-014
rhumerus -22.3137 21.0932 -98.344
rradius 135.304
rwrist 1.28016
rhand -40.1817 10.6796
rfingers 7.12502
rthumb -13.1429 -18.8862
lclavicle -3.37934e-014 1.66979e-014
lhumerus -27.7626 -6.40992 86.963
lradius 139.881
lwrist 46.4262
lhand -33.7337 42.0065
lfingers 7.12502
lthumb -6.92247 71.8733
rfemur -24.2609 -3.77507 15.045
rtibia 73.2277
rfoot -39.8627 -12.0434
rtoes -15.2252
lfemur -22.5656 1.81996 -6.40628
ltibia 67.302
lfoot -35.6268 -2.98977
ltoes -31.0323
